PathFileType	4	(X/Y/Z)	/Users/itak/Documents/Research/Walk-IL/dataset/trc/00494_00167.trc
DataRate	CameraRate	NumFrames	NumMarkers	Units	OrigDataRate	OrigDataStartFrame	OrigNumFrames
100.000000	100.000000	4	53	mm	100.000000	444	593
Frame#	Time	RPSI			LPSI			L3			STRN			T10			C7			CLAV			RBAK			LBAK			LSHO			LUPA			LAEL			LAOL			LWTS			LWPS			LFRA			LIFD			LHPS			LHTS			RSHO			RUPA			RAEL			RAOL			RWTS			RWPS			RFRA			RIFD			RHTS			RHPS			RBHD			LFHD			RFHD			LBHD			LHIP			RHIP			RASI			LASI			LKNE			LTHI			LANK			LTIP			LTOE			LMT1			LMT5			LHEE			RKNE			RTHI			RANK			RTIP			RTOE			RMT1			RMT5			RHEE			
		X1	Y1	Z1	X2	Y2	Z2	X3	Y3	Z3	X4	Y4	Z4	X5	Y5	Z5	X6	Y6	Z6	X7	Y7	Z7	X8	Y8	Z8	X9	Y9	Z9	X10	Y10	Z10	X11	Y11	Z11	X12	Y12	Z12	X13	Y13	Z13	X14	Y14	Z14	X15	Y15	Z15	X16	Y16	Z16	X17	Y17	Z17	X18	Y18	Z18	X19	Y19	Z19	X20	Y20	Z20	X21	Y21	Z21	X22	Y22	Z22	X23	Y23	Z23	X24	Y24	Z24	X25	Y25	Z25	X26	Y26	Z26	X27	Y27	Z27	X28	Y28	Z28	X29	Y29	Z29	X30	Y30	Z30	X31	Y31	Z31	X32	Y32	Z32	X33	Y33	Z33	X34	Y34	Z34	X35	Y35	Z35	X36	Y36	Z36	X37	Y37	Z37	X38	Y38	Z38	X39	Y39	Z39	X40	Y40	Z40	X41	Y41	Z41	X42	Y42	Z42	X43	Y43	Z43	X44	Y44	Z44	X45	Y45	Z45	X46	Y46	Z46	X47	Y47	Z47	X48	Y48	Z48	X49	Y49	Z49	X50	Y50	Z50	X51	Y51	Z51	X52	Y52	Z52	X53	Y53	Z53	

445	4.44	357.0575561523438	943.525146484375	-212.4959564208984	214.0927276611328	947.5262451171875	-222.2598114013672	311.7647094726562	1051.362060546875	-235.4420928955078	307.8203735351562	1234.761108398438	-516.9346923828125	315.9203491210938	1175.941040039062	-227.0974578857422	335.6135864257812	1440.701049804688	-307.7093811035156	309.1952209472656	1348.992065429688	-485.5426940917969	428.3042297363281	1319.941162109375	-242.9751586914062	238.2281951904297	1400.543701171875	-265.8752746582031	153.7222137451172	1419.67041015625	-364.83837890625	52.82561874389648	1308.3798828125	-334.4076538085938	-0.4529257714748383	1099.097778320312	-325.73486328125	78.78084564208984	1081.52294921875	-260.9658508300781	16.89986610412598	890.7894897460938	-403.5432434082031	-36.24864959716797	883.7330322265625	-349.3984680175781	-20.32846069335938	1011.752807617188	-340.9504089355469	0.3756954371929169	726.9954833984375	-394.9652709960938	-39.6754150390625	803.40673828125	-351.7925720214844	0.6168189644813538	802.5927124023438	-411.6823425292969	487.9310607910156	1400.942993164062	-380.3909606933594	564.4908447265625	1344.784545898438	-362.8782958984375	654.2017211914062	1072.413696289062	-357.232666015625	616.3194580078125	1048.250610351562	-306.2722473144531	636.2431030273438	868.9730834960938	-468.8471374511719	695.7893676757812	859.8721313476562	-404.4111633300781	671.7355346679688	1016.038208007812	-363.1733703613281	665.9197998046875	716.2515869140625	-479.9909362792969	662.9525756835938	776.4906616210938	-491.266357421875	705.5518188476562	773.9304809570312	-426.8710327148438	429.8617858886719	1626.789794921875	-413.5647277832031	269.7891235351562	1640.97509765625	-543.3652954101562	399.3000793457031	1633.53466796875	-547.9461059570312	255.0835723876953	1643.150756835938	-390.480712890625	96.36758422851562	855.8972778320312	-375.0457458496094	496.9549255371094	838.7699584960938	-328.6255187988281	441.0584411621094	887.1067504882812	-431.2708740234375	189.2580413818359	893.580078125	-457.4865112304688	94.82948303222656	448.3854064941406	-466.3599243164062	94.61741638183594	602.9437866210938	-477.8094177246094	24.33249282836914	186.0115203857422	-132.7026977539062	53.79702377319336	335.4512023925781	-359.1600036621094	112.2313079833984	43.78303909301758	-299.79638671875	136.3605041503906	88.904296875	-237.7402648925781	26.49957084655762	86.93304443359375	-247.3930969238281	86.02298736572266	218.1524810791016	-96.7685546875	475.6504821777344	463.2823791503906	-442.3101196289062	510.5798645019531	715.6318969726562	-394.407958984375	481.074462890625	38.95884323120117	-364.2757873535156	485.8670349121094	318.0363159179688	-442.3003845214844	454.8222045898438	42.73945236206055	-588.404052734375	413.9138793945312	49.96478652954102	-525.976318359375	520.119873046875	40.73029708862305	-492.7100524902344	428.7043151855469	34.77631378173828	-304.6288146972656	
446	4.45	359.349365234375	944.322265625	-215.4588012695312	216.4181671142578	948.640625	-225.2593841552734	314.9437866210938	1052.386840820312	-238.3013000488281	310.0771484375	1235.97705078125	-519.9156494140625	319.7440185546875	1176.979248046875	-230.0944213867188	339.4881896972656	1441.684326171875	-310.7732849121094	311.708984375	1350.189819335938	-488.4973754882812	432.6163330078125	1320.748046875	-246.8304443359375	242.3431549072266	1401.747436523438	-268.2938537597656	157.23193359375	1421.04052734375	-366.7676696777344	56.52342224121094	1309.676635742188	-335.8103942871094	3.809238433837891	1100.124389648438	-327.2652282714844	83.37961578369141	1082.4033203125	-263.0582885742188	21.26567459106445	892.795654296875	-407.8050842285156	-31.03994941711426	884.8770751953125	-353.3230285644531	-15.84452629089355	1012.854187011719	-343.3828735351562	5.671270847320557	729.0570678710938	-401.6669921875	-34.18172073364258	804.607421875	-356.8793029785156	5.416736125946045	804.941650390625	-417.23095703125	491.1965942382812	1401.95458984375	-384.5749816894531	567.9190063476562	1345.777221679688	-367.9622802734375	658.1913452148438	1073.759521484375	-365.1434936523438	620.54052734375	1048.6162109375	-314.4657592773438	641.43212890625	872.3883056640625	-480.3122863769531	700.6366577148438	862.4603271484375	-415.6661682128906	675.9393310546875	1017.518188476562	-372.0256652832031	672.8218383789062	720.1629638671875	-494.3433227539062	669.353515625	780.5984497070312	-504.4791870117188	711.4913330078125	777.1510620117188	-439.8638305664062	433.5453491210938	1627.558227539062	-417.1105041503906	272.7040710449219	1642.19580078125	-545.9739990234375	402.2168884277344	1634.39697265625	-551.3119506835938	258.8378601074219	1644.449951171875	-392.8616943359375	98.70332336425781	857.4498901367188	-378.5855712890625	498.9521484375	839.030029296875	-331.1185607910156	443.92626953125	887.624267578125	-434.0941467285156	192.2511596679688	895.072998046875	-460.1304931640625	98.19315338134766	450.6961364746094	-473.8886108398438	97.53375244140625	605.5421752929688	-484.0910949707031	34.46940994262695	183.2049102783203	-143.2625427246094	59.32383728027344	336.2029113769531	-367.4182739257812	117.1571807861328	44.91319274902344	-316.6982421875	142.8923950195312	87.81430816650391	-253.8101654052734	33.07732391357422	88.16606140136719	-261.284912109375	97.27977752685547	213.5608520507812	-107.5426864624023	476.8418884277344	463.1724243164062	-442.5041809082031	512.3483276367188	715.6077270507812	-396.2717895507812	481.0528564453125	38.97634887695312	-364.302001953125	486.6355590820312	317.9209289550781	-442.3049926757812	454.8896484375	42.71561431884766	-588.4154052734375	414.0743103027344	50.08205032348633	-525.9586791992188	520.1723022460938	40.69052124023438	-492.7005615234375	428.6539916992188	34.81366729736328	-304.6672668457031	
447	4.46	361.5206604003906	945.2164306640625	-218.359619140625	218.625	949.7403564453125	-228.2097625732422	317.918701171875	1053.344604492188	-241.0971984863281	312.2755737304688	1237.217895507812	-522.7944946289062	323.3361206054688	1177.969482421875	-233.0166778564453	343.150146484375	1442.651611328125	-313.6797790527344	314.1429138183594	1351.411010742188	-491.3169860839844	436.6766052246094	1321.511352539062	-250.5229949951172	246.2430114746094	1402.901977539062	-270.6279907226562	160.5695648193359	1422.383544921875	-368.6513977050781	60.0270881652832	1310.977172851562	-337.2521362304688	7.86124849319458	1101.15771484375	-328.9561462402344	87.65033721923828	1083.300537109375	-265.1707763671875	25.51015853881836	894.7520751953125	-412.2236938476562	-25.92034149169922	885.928955078125	-357.4993591308594	-11.54825019836426	1013.979858398438	-346.0262145996094	11.05097961425781	731.1436767578125	-408.36962890625	-28.80859565734863	805.8212890625	-362.2127075195312	10.30321216583252	807.2939453125	-422.8855590820312	494.3040771484375	1403.02294921875	-388.4704284667969	571.1763305664062	1346.8427734375	-372.6983032226562	661.9537353515625	1075.131103515625	-372.7291259765625	624.492431640625	1049.02099609375	-322.3849182128906	646.2523803710938	875.9976806640625	-491.5953369140625	705.0675048828125	865.1116333007812	-426.7444152832031	679.8698120117188	1019.042907714844	-380.5868835449219	679.1220703125	724.3170776367188	-508.5591735839844	675.2412109375	784.9200439453125	-517.5186157226562	716.8887329101562	780.477294921875	-452.6698913574219	436.9398803710938	1628.441772460938	-420.49658203125	275.3114318847656	1643.365966796875	-548.4071655273438	404.8321228027344	1635.32666015625	-554.5066528320312	262.2769165039062	1645.708740234375	-395.0479431152344	100.9956512451172	858.9791870117188	-381.9927978515625	500.8374328613281	839.4025268554688	-333.5517272949219	446.6264343261719	888.17626953125	-436.8262023925781	195.068115234375	896.5242309570312	-462.7860107421875	101.4624862670898	452.8674011230469	-481.0035400390625	100.3287582397461	608.006103515625	-489.9591674804688	44.16998672485352	179.4986419677734	-154.2167816162109	64.72060394287109	336.6004333496094	-375.6544189453125	122.7650604248047	45.93338012695312	-333.4898071289062	149.6531219482422	86.63990783691406	-269.8307800292969	39.97697067260742	88.55951690673828	-275.272705078125	107.8511428833008	208.3750457763672	-118.6651382446289	478.0040283203125	463.1280822753906	-442.475341796875	514.0331420898438	715.691650390625	-398.0219421386719	481.0406494140625	38.98001098632812	-364.3148193359375	487.3954467773438	317.8492126464844	-442.1539611816406	454.9604187011719	42.70322418212891	-588.4107666015625	414.2290649414062	50.19502258300781	-525.9322509765625	520.2391357421875	40.64141845703125	-492.6854248046875	428.6122436523438	34.83884429931641	-304.6992797851562	
448	4.47	363.6209106445312	946.2030029296875	-221.2119445800781	220.7586669921875	950.8248901367188	-231.1054840087891	320.7194519042969	1054.233764648438	-243.8354644775391	314.4204406738281	1238.472045898438	-525.582275390625	326.7119140625	1178.906860351562	-235.8744049072266	346.6003723144531	1443.600830078125	-316.4373474121094	316.5040893554688	1352.641845703125	-494.0142517089844	440.4844360351562	1322.22900390625	-254.0452880859375	249.9256896972656	1403.999877929688	-272.8868713378906	163.7279815673828	1423.679565429688	-370.4898681640625	63.33609390258789	1312.253784179688	-338.722900390625	11.67934322357178	1102.181762695312	-330.8115844726562	91.57625579833984	1084.19091796875	-267.3053894042969	29.68919563293457	896.68017578125	-416.7848205566406	-20.93048477172852	886.89892578125	-361.9489135742188	-7.449127197265625	1015.114440917969	-348.8843994140625	16.50734329223633	733.242431640625	-415.0805358886719	-23.59144020080566	807.0482177734375	-367.8005981445312	15.29018974304199	809.6265869140625	-428.6253051757812	497.2552490234375	1404.128784179688	-392.0901489257812	574.268310546875	1347.95703125	-377.0923156738281	665.5153198242188	1076.511108398438	-379.9850463867188	628.2125244140625	1049.458251953125	-330.0146789550781	650.6782836914062	879.7832641601562	-502.6567687988281	709.0789184570312	867.8035888671875	-437.6343383789062	683.5440063476562	1020.594909667969	-388.8468933105469	684.7758178710938	728.7063598632812	-522.6333618164062	680.5689697265625	789.4495239257812	-530.3649291992188	721.7149047851562	783.8798217773438	-465.2865600585938	440.0526428222656	1629.424560546875	-423.7095336914062	277.64453125	1644.500610351562	-550.67626953125	407.1705322265625	1636.322631835938	-557.521728515625	265.4187316894531	1646.923461914062	-397.0591125488281	103.2428283691406	860.47314453125	-385.2611389160156	502.6349487304688	839.8828125	-335.9701232910156	449.1455993652344	888.7477416992188	-439.4937744140625	197.7057952880859	897.9349975585938	-465.4544982910156	104.6483764648438	454.86083984375	-487.6980285644531	102.9918441772461	610.3070068359375	-495.3923950195312	53.34578323364258	174.9774932861328	-165.5553588867188	69.98506164550781	336.617919921875	-383.8890380859375	128.9671630859375	46.86057281494141	-350.1912536621094	156.6341857910156	85.40792083740234	-285.74560546875	47.13196182250977	88.20033264160156	-289.4205627441406	117.6580123901367	202.6501159667969	-130.0727081298828	479.1350402832031	463.1353454589844	-442.2474365234375	515.6468505859375	715.8837890625	-399.7066650390625	481.0377502441406	38.97097396850586	-364.314453125	488.1481628417969	317.8110961914062	-441.8645629882812	455.0365600585938	42.70335006713867	-588.3864135742188	414.3668823242188	50.29795074462891	-525.9022827148438	520.3192138671875	40.58462142944336	-492.6651306152344	428.5794067382812	34.85198974609375	-304.7234802246094	
